<svg version="1.1" xmlns="http://www.w3.org/2000/svg" viewBox="0 0 648.5713348388672 737.7889773660391" width="648.5713348388672" height="737.7889773660391">
  <!-- svg-source:excalidraw -->
  
  <defs>
    <style class="style-fonts">
      @font-face {
        font-family: "Virgil";
        src: url("https://excalidraw.com/Virgil.woff2");
      }
      @font-face {
        font-family: "Cascadia";
        src: url("https://excalidraw.com/Cascadia.woff2");
      }
      @font-face {
        font-family: "Assistant";
        src: url("https://excalidraw.com/Assistant-Regular.woff2");
      }
    </style>
    
  </defs>
  <g stroke-linecap="round" transform="translate(10 389.42870330810547) rotate(0 85.99998474121094 85.99998474121094)"><path d="M107.5 21.5 C117.03 29.53, 124.42 40.09, 150.5 64.5 M107.5 21.5 C121.07 34.85, 135.81 50.17, 150.5 64.5 M150.5 64.5 C170.33 85.69, 171.01 84.33, 150.5 107.5 M150.5 64.5 C169.7 85.29, 172.73 87.13, 150.5 107.5 M150.5 107.5 C141.6 117.94, 132.53 126.21, 107.5 150.5 M150.5 107.5 C136.76 121.08, 123.53 134.61, 107.5 150.5 M107.5 150.5 C87.58 172, 85.13 170.66, 64.5 150.5 M107.5 150.5 C88.29 171.81, 85.5 171.75, 64.5 150.5 M64.5 150.5 C48.97 136.37, 32.82 117.41, 21.5 107.5 M64.5 150.5 C53.1 138.95, 41.32 127.64, 21.5 107.5 M21.5 107.5 C-1.22 87.48, -1.72 84.99, 21.5 64.5 M21.5 107.5 C1.19 87.05, -1.66 86.63, 21.5 64.5 M21.5 64.5 C33.02 55.05, 43.44 45.02, 64.5 21.5 M21.5 64.5 C38.59 48.94, 53.68 33.93, 64.5 21.5 M64.5 21.5 C85.55 -1.89, 87.81 0.48, 107.5 21.5 M64.5 21.5 C87.01 1.46, 84.23 -0.31, 107.5 21.5" stroke="#2f9e44" stroke-width="2" fill="none"></path></g><g transform="translate(53.869080074653084 437.4286422729492) rotate(0 40.762229919433594 38.92858886718744)"><text x="40.762229919433594" y="0" font-family="Virgil, Segoe UI Emoji" font-size="20.761914062499976px" fill="#2f9e44" text-anchor="middle" style="white-space: pre;" direction="ltr" dominant-baseline="text-before-edge">Company</text><text x="40.762229919433594" y="25.95239257812497" font-family="Virgil, Segoe UI Emoji" font-size="20.761914062499976px" fill="#2f9e44" text-anchor="middle" style="white-space: pre;" direction="ltr" dominant-baseline="text-before-edge">Branch</text><text x="40.762229919433594" y="51.90478515624994" font-family="Virgil, Segoe UI Emoji" font-size="20.761914062499976px" fill="#2f9e44" text-anchor="middle" style="white-space: pre;" direction="ltr" dominant-baseline="text-before-edge">Service</text></g><g stroke-linecap="round" transform="translate(236.0000762939453 388.5714797973633) rotate(0 85.99998474121094 85.99998474121094)"><path d="M107.5 21.5 C115.32 29.83, 127.21 39.49, 150.5 64.5 M107.5 21.5 C116.76 31.56, 127.25 39.37, 150.5 64.5 M150.5 64.5 C172.81 87.54, 171.47 84.32, 150.5 107.5 M150.5 64.5 C170.23 84.7, 173.7 87.07, 150.5 107.5 M150.5 107.5 C132.85 123.27, 117.32 142.27, 107.5 150.5 M150.5 107.5 C138.74 119.44, 125.67 131.49, 107.5 150.5 M107.5 150.5 C87.71 170.07, 84.44 172.09, 64.5 150.5 M107.5 150.5 C84.5 170.21, 85.37 170.6, 64.5 150.5 M64.5 150.5 C51.6 139.98, 42.52 128.69, 21.5 107.5 M64.5 150.5 C56.12 141.04, 46.32 133.47, 21.5 107.5 M21.5 107.5 C1.26 86.76, -1.22 87.43, 21.5 64.5 M21.5 107.5 C1.19 84.52, -1.94 84.97, 21.5 64.5 M21.5 64.5 C35.97 48.4, 51.48 35.52, 64.5 21.5 M21.5 64.5 C38.31 48.9, 54.68 32.23, 64.5 21.5 M64.5 21.5 C87.68 0.38, 84.14 -0.42, 107.5 21.5 M64.5 21.5 C87.42 -0.32, 86.71 -1.06, 107.5 21.5" stroke="#2f9e44" stroke-width="2" fill="none"></path></g><g transform="translate(288.25162506103516 450.00023651123047) rotate(0 34.319969177246094 25)"><text x="34.319969177246094" y="0" font-family="Virgil, Segoe UI Emoji" font-size="20px" fill="#2f9e44" text-anchor="middle" style="white-space: pre;" direction="ltr" dominant-baseline="text-before-edge">Parking</text><text x="34.319969177246094" y="25" font-family="Virgil, Segoe UI Emoji" font-size="20px" fill="#2f9e44" text-anchor="middle" style="white-space: pre;" direction="ltr" dominant-baseline="text-before-edge">Service</text></g><g stroke-linecap="round" transform="translate(466.5713653564453 387.57154083251953) rotate(0 85.99998474121094 85.99998474121094)"><path d="M107.5 21.5 C123.45 36.32, 139.3 50.23, 150.5 64.5 M107.5 21.5 C117.92 32.07, 128.79 42, 150.5 64.5 M150.5 64.5 C173.83 85.83, 170.88 86.64, 150.5 107.5 M150.5 64.5 C173.69 85.39, 170.25 83.91, 150.5 107.5 M150.5 107.5 C139.77 117.64, 131.64 128.92, 107.5 150.5 M150.5 107.5 C134.84 122.35, 120.75 137.82, 107.5 150.5 M107.5 150.5 C87.83 170.69, 84.91 171.01, 64.5 150.5 M107.5 150.5 C86.35 170.6, 84.01 171.61, 64.5 150.5 M64.5 150.5 C49.24 135.41, 34.57 118.31, 21.5 107.5 M64.5 150.5 C52.95 139.68, 40.86 126.61, 21.5 107.5 M21.5 107.5 C0.53 86.3, 0.4 86.32, 21.5 64.5 M21.5 107.5 C0.83 85.52, 1.38 86.53, 21.5 64.5 M21.5 64.5 C33.42 51.21, 46.41 37.94, 64.5 21.5 M21.5 64.5 C30.32 55.24, 41.48 44.76, 64.5 21.5 M64.5 21.5 C84.02 -1.47, 85.97 1.81, 107.5 21.5 M64.5 21.5 C84.36 -1.41, 84.89 -0.61, 107.5 21.5" stroke="#2f9e44" stroke-width="2" fill="none"></path></g><g transform="translate(511.6285705566406 447.4286422729492) rotate(0 41.799957275390625 25)"><text x="41.799957275390625" y="0" font-family="Virgil, Segoe UI Emoji" font-size="20px" fill="#2f9e44" text-anchor="middle" style="white-space: pre;" direction="ltr" dominant-baseline="text-before-edge">Employee</text><text x="41.799957275390625" y="25" font-family="Virgil, Segoe UI Emoji" font-size="20px" fill="#2f9e44" text-anchor="middle" style="white-space: pre;" direction="ltr" dominant-baseline="text-before-edge">Service</text></g><g stroke-linecap="round" transform="translate(50.00006103515625 175.1428451538086) rotate(0 278 53.42857360839844)"><path d="M26.71 0 C132.78 2.52, 236.93 2.44, 529.29 0 M26.71 0 C220.59 -0.65, 413.85 -0.78, 529.29 0 M529.29 0 C546.01 -1.76, 555.32 7.78, 556 26.71 M529.29 0 C549.18 -1.76, 554.33 6.91, 556 26.71 M556 26.71 C554.44 38.67, 555.96 48.81, 556 80.14 M556 26.71 C555.68 39.81, 556.73 53.27, 556 80.14 M556 80.14 C555.4 98.6, 545.48 106.46, 529.29 106.86 M556 80.14 C557.8 96.31, 546.19 108.06, 529.29 106.86 M529.29 106.86 C405.57 104.4, 281.48 104.34, 26.71 106.86 M529.29 106.86 C401.88 105.5, 274.03 105.48, 26.71 106.86 M26.71 106.86 C8.14 105.77, 1.63 96.15, 0 80.14 M26.71 106.86 C9.05 106.34, -2.28 98.84, 0 80.14 M0 80.14 C1.26 67.65, 2.26 55.36, 0 26.71 M0 80.14 C-0.44 69.6, 1.4 57.35, 0 26.71 M0 26.71 C-1.59 9.27, 9.14 -1.6, 26.71 0 M0 26.71 C-2.13 9.19, 10.56 0.09, 26.71 0" stroke="#f08c00" stroke-width="2" fill="none"></path></g><g transform="translate(271.6785659790039 213.1428451538086) rotate(0 66.74996185302734 12.5)"><text x="66.74996185302734" y="0" font-family="Virgil, Segoe UI Emoji" font-size="20px" fill="#f08c00" text-anchor="middle" style="white-space: pre;" direction="ltr" dominant-baseline="text-before-edge">API Gateway</text></g><g stroke-linecap="round"><g transform="translate(66.57144165039062 279.14290618896484) rotate(0 0.19908259135615936 68.37237431782347)"><path d="M-0.36 -0.84 C-0.29 21.89, 0.56 113.63, 0.75 136.55 M1.65 1.34 C1.56 24.23, 0.23 115.22, -0.01 137.98" stroke="#f08c00" stroke-width="2" fill="none"></path></g><g transform="translate(66.57144165039062 279.14290618896484) rotate(0 0.19908259135615936 68.37237431782347)"><path d="M-8.27 114.38 C-6.91 122.73, -3.14 130.5, -0.01 137.98 M-8.27 114.38 C-6.15 120.34, -3.04 128.86, -0.01 137.98" stroke="#f08c00" stroke-width="2" fill="none"></path></g><g transform="translate(66.57144165039062 279.14290618896484) rotate(0 0.19908259135615936 68.37237431782347)"><path d="M8.83 114.6 C4.58 122.82, 2.75 130.53, -0.01 137.98 M8.83 114.6 C5.95 120.46, 4.05 128.92, -0.01 137.98" stroke="#f08c00" stroke-width="2" fill="none"></path></g></g><mask></mask><g stroke-linecap="round"><g transform="translate(121.00511151196383 413.01961651648526) rotate(0 -1.0488115646062397 -64.9383551637602)"><path d="M0 0.09 C-0.21 -21.3, -1.76 -107.51, -2.18 -129.18 M-1.45 -0.91 C-1.75 -22.57, -2.83 -109.64, -3.17 -130.93" stroke="#2f9e44" stroke-width="2" fill="none"></path></g><g transform="translate(121.00511151196383 413.01961651648526) rotate(0 -1.0488115646062397 -64.9383551637602)"><path d="M5.71 -107.56 C4.03 -112.93, 3.06 -118.74, -3.17 -130.93 M5.71 -107.56 C2.71 -115.03, 0.28 -120.96, -3.17 -130.93" stroke="#2f9e44" stroke-width="2" fill="none"></path></g><g transform="translate(121.00511151196383 413.01961651648526) rotate(0 -1.0488115646062397 -64.9383551637602)"><path d="M-11.39 -107.32 C-9.24 -112.75, -6.38 -118.61, -3.17 -130.93 M-11.39 -107.32 C-9.35 -114.76, -6.73 -120.76, -3.17 -130.93" stroke="#2f9e44" stroke-width="2" fill="none"></path></g></g><mask></mask><g stroke-linecap="round"><g transform="translate(354.00006103515625 418.57149505615234) rotate(0 0 -68.857177734375)"><path d="M-0.89 -0.62 C-0.88 -23.8, -0.9 -115.37, -0.67 -138.2 M0.84 1.67 C1.31 -21.43, 1.84 -113.93, 1.69 -136.92" stroke="#2f9e44" stroke-width="2" fill="none"></path></g><g transform="translate(354.00006103515625 418.57149505615234) rotate(0 0 -68.857177734375)"><path d="M10.22 -113.42 C6.97 -120.23, 5.14 -123.97, 1.69 -136.92 M10.22 -113.42 C7.74 -121.56, 4.98 -127.51, 1.69 -136.92" stroke="#2f9e44" stroke-width="2" fill="none"></path></g><g transform="translate(354.00006103515625 418.57149505615234) rotate(0 0 -68.857177734375)"><path d="M-6.88 -113.44 C-6.04 -120.11, -3.78 -123.85, 1.69 -136.92 M-6.88 -113.44 C-4.1 -121.45, -1.62 -127.4, 1.69 -136.92" stroke="#2f9e44" stroke-width="2" fill="none"></path></g></g><mask></mask><g stroke-linecap="round"><g transform="translate(576.2857666015625 409.99999237060547) rotate(0 -5.684341886080802e-14 -63.142852783203125)"><path d="M0.49 0.4 C0.45 -20.95, 0.41 -106.29, 0.36 -127.24 M-0.72 -0.43 C-0.93 -21.75, -0.45 -105.09, -0.4 -126.2" stroke="#2f9e44" stroke-width="2" fill="none"></path></g><g transform="translate(576.2857666015625 409.99999237060547) rotate(0 -5.684341886080802e-14 -63.142852783203125)"><path d="M8.06 -102.68 C5.62 -110.21, 0.42 -118.62, -0.4 -126.2 M8.06 -102.68 C5.49 -111.36, 2.22 -120.83, -0.4 -126.2" stroke="#2f9e44" stroke-width="2" fill="none"></path></g><g transform="translate(576.2857666015625 409.99999237060547) rotate(0 -5.684341886080802e-14 -63.142852783203125)"><path d="M-9.04 -102.75 C-5.55 -110.32, -4.81 -118.71, -0.4 -126.2 M-9.04 -102.75 C-5.07 -111.47, -1.8 -120.92, -0.4 -126.2" stroke="#2f9e44" stroke-width="2" fill="none"></path></g></g><mask></mask><g stroke-linecap="round"><g transform="translate(294.00006103515625 283.7142868041992) rotate(0 0 65.71430969238281)"><path d="M0.32 -0.6 C0.48 21.51, 0.88 109.72, 0.77 131.79 M-0.96 1.69 C-0.88 23.51, 0.28 108.52, 0.23 129.86" stroke="#f08c00" stroke-width="2" fill="none"></path></g><g transform="translate(294.00006103515625 283.7142868041992) rotate(0 0 65.71430969238281)"><path d="M-8.48 106.43 C-7.17 114.39, -3.06 119.29, 0.23 129.86 M-8.48 106.43 C-5.22 114.7, -2.84 122.41, 0.23 129.86" stroke="#f08c00" stroke-width="2" fill="none"></path></g><g transform="translate(294.00006103515625 283.7142868041992) rotate(0 0 65.71430969238281)"><path d="M8.62 106.31 C5.05 114.36, 4.26 119.28, 0.23 129.86 M8.62 106.31 C6.15 114.75, 2.8 122.51, 0.23 129.86" stroke="#f08c00" stroke-width="2" fill="none"></path></g></g><mask></mask><g stroke-linecap="round"><g transform="translate(525.4286499023438 281.99999237060547) rotate(0 0 64.57145690917969)"><path d="M-0.15 0.68 C-0.01 22.27, 0.84 107.92, 0.68 129.31 M-1.69 -0.01 C-1.64 21.82, -0.39 109.22, 0.09 130.94" stroke="#f08c00" stroke-width="2" fill="none"></path></g><g transform="translate(525.4286499023438 281.99999237060547) rotate(0 0 64.57145690917969)"><path d="M-8.87 107.6 C-5.21 115.44, -3.49 119.09, 0.09 130.94 M-8.87 107.6 C-6.25 115.13, -3.57 121.67, 0.09 130.94" stroke="#f08c00" stroke-width="2" fill="none"></path></g><g transform="translate(525.4286499023438 281.99999237060547) rotate(0 0 64.57145690917969)"><path d="M8.23 107.3 C6.98 115.21, 3.79 118.95, 0.09 130.94 M8.23 107.3 C5.87 114.99, 3.56 121.63, 0.09 130.94" stroke="#f08c00" stroke-width="2" fill="none"></path></g></g><mask></mask><g stroke-linecap="round" transform="translate(258.00006103515625 10) rotate(0 82 50.85713577270508)"><path d="M100.28 0.92 C111.68 1.8, 124.73 6.2, 133.97 10.89 C143.22 15.58, 150.61 22.48, 155.74 29.03 C160.87 35.59, 164.93 42.79, 164.74 50.25 C164.56 57.7, 160.08 67.1, 154.64 73.76 C149.2 80.42, 141.25 85.88, 132.12 90.21 C123 94.54, 111.24 97.96, 99.89 99.74 C88.54 101.52, 75.67 102.48, 64.02 100.9 C52.37 99.31, 39.41 94.96, 29.97 90.24 C20.54 85.51, 12.37 79.3, 7.42 72.52 C2.47 65.74, 0.16 57.03, 0.25 49.56 C0.34 42.1, 2.9 34.27, 7.97 27.74 C13.04 21.2, 21.39 14.8, 30.67 10.33 C39.95 5.86, 49.51 1.84, 63.64 0.9 C77.78 -0.03, 104.9 3.15, 115.48 4.7 C126.07 6.25, 127.79 9.6, 127.16 10.19 M44.77 6.73 C54.52 2.7, 68.55 0.6, 80.25 -0.04 C91.95 -0.68, 104.42 -0.13, 114.97 2.89 C125.53 5.9, 135.71 12.36, 143.57 18.05 C151.43 23.73, 158.78 29.87, 162.14 36.99 C165.51 44.1, 166.29 53.57, 163.75 60.74 C161.21 67.91, 154.38 74.13, 146.91 80.01 C139.43 85.89, 129.21 92.57, 118.92 96.02 C108.64 99.46, 96.94 100.49, 85.19 100.69 C73.44 100.88, 59.11 100.2, 48.41 97.17 C37.72 94.14, 28.58 87.97, 21.04 82.5 C13.5 77.03, 6.46 71.44, 3.17 64.33 C-0.11 57.22, -0.82 47.08, 1.3 39.83 C3.42 32.57, 8.91 26.4, 15.9 20.8 C22.9 15.2, 38.45 8.37, 43.28 6.25 C48.1 4.14, 44.32 7.69, 44.87 8.12" stroke="#1971c2" stroke-width="2" fill="none"></path></g><g transform="translate(304.4000778198242 48.39571019610037) rotate(0 35.59998321533203 12.5)"><text x="35.59998321533203" y="0" font-family="Virgil, Segoe UI Emoji" font-size="20px" fill="#1971c2" text-anchor="middle" style="white-space: pre;" direction="ltr" dominant-baseline="text-before-edge">Web UI</text></g><g stroke-linecap="round"><g transform="translate(308.2857666015625 105.42859649658203) rotate(0 0 35.14288330078122)"><path d="M0.06 0.07 C-0.24 11.94, -0.81 59.48, -0.77 71.29 M-1.36 -0.93 C-1.37 10.6, 1.37 58.06, 1.54 69.69" stroke="#1971c2" stroke-width="2" fill="none"></path></g><g transform="translate(308.2857666015625 105.42859649658203) rotate(0 0 35.14288330078122)"><path d="M-7.91 46.55 C-4.12 54.2, 1.09 64.92, 1.54 69.69 M-7.91 46.55 C-4.27 54.93, -0.6 62.62, 1.54 69.69" stroke="#1971c2" stroke-width="2" fill="none"></path></g><g transform="translate(308.2857666015625 105.42859649658203) rotate(0 0 35.14288330078122)"><path d="M9.18 45.89 C6.37 53.81, 4.98 64.78, 1.54 69.69 M9.18 45.89 C6.83 54.6, 4.5 62.53, 1.54 69.69" stroke="#1971c2" stroke-width="2" fill="none"></path></g></g><mask></mask><g stroke-linecap="round"><g transform="translate(370.5714111328125 173.99999237060547) rotate(0 0 -34.857139587402344)"><path d="M-0.62 0.72 C-0.41 -10.95, -0.19 -58.34, 0.08 -69.97 M1.26 0.06 C1.42 -11.44, -0.75 -56.72, -0.83 -68.57" stroke="#f08c00" stroke-width="2" fill="none"></path></g><g transform="translate(370.5714111328125 173.99999237060547) rotate(0 0 -34.857139587402344)"><path d="M8.4 -45.34 C7.75 -49.9, 4.27 -53, -0.83 -68.57 M8.4 -45.34 C4.57 -53.68, 2.8 -62.5, -0.83 -68.57" stroke="#f08c00" stroke-width="2" fill="none"></path></g><g transform="translate(370.5714111328125 173.99999237060547) rotate(0 0 -34.857139587402344)"><path d="M-8.69 -44.84 C-5.93 -49.42, -5.99 -52.62, -0.83 -68.57 M-8.69 -44.84 C-6.47 -53.43, -2.19 -62.43, -0.83 -68.57" stroke="#f08c00" stroke-width="2" fill="none"></path></g></g><mask></mask><g stroke-linecap="round"><g transform="translate(289.27890211330225 635.6640777089498) rotate(0 38.504325523915156 41.817628913120245)"><path d="M-0.07 0.36 C-0.05 13.19, 0.76 62.28, 0.92 76.21 C1.07 90.14, 0.34 82.14, 0.88 83.93 C1.41 85.72, 1.27 85.64, 4.15 86.95 C7.02 88.26, 12.03 91.03, 18.13 91.79 C24.23 92.55, 33.15 91.83, 40.74 91.5 C48.32 91.17, 57.83 90.83, 63.65 89.8 C69.47 88.78, 73.55 86.45, 75.65 85.34 C77.75 84.22, 76.19 84.51, 76.26 83.1 C76.33 81.69, 76.09 89.66, 76.07 76.89 C76.04 64.11, 76.08 19.32, 76.11 6.45 C76.15 -6.43, 76.96 1.48, 76.28 -0.37 C75.6 -2.23, 74.51 -3.61, 72 -4.7 C69.5 -5.78, 67.09 -6.4, 61.24 -6.87 C55.4 -7.34, 43.98 -7.44, 36.94 -7.5 C29.89 -7.56, 24.67 -7.91, 18.97 -7.23 C13.27 -6.55, 5.96 -4.52, 2.71 -3.41 C-0.54 -2.3, -0.21 -1.16, -0.54 -0.56 C-0.86 0.04, 0.57 -0.03, 0.75 0.19 M-1.56 -0.5 C-1.72 12.08, -0.04 60.31, 0.32 74.62 C0.67 88.92, -0.13 83.14, 0.56 85.33 C1.26 87.52, 1.77 87.15, 4.49 87.78 C7.2 88.42, 10.6 88.71, 16.85 89.15 C23.1 89.59, 34.04 90.55, 41.98 90.42 C49.91 90.29, 58.98 89.34, 64.47 88.35 C69.95 87.36, 72.64 85.6, 74.89 84.49 C77.14 83.39, 77.72 82.98, 77.95 81.69 C78.19 80.4, 76.64 89.13, 76.32 76.76 C76 64.4, 76.29 20.44, 76.03 7.51 C75.78 -5.43, 75.37 0.79, 74.78 -0.83 C74.19 -2.46, 74.86 -1.13, 72.5 -2.23 C70.14 -3.33, 66.53 -6.51, 60.63 -7.45 C54.72 -8.38, 44.38 -8.05, 37.07 -7.84 C29.75 -7.62, 22.08 -7.02, 16.71 -6.17 C11.33 -5.32, 7.33 -3.71, 4.81 -2.76 C2.29 -1.8, 2.42 -1.01, 1.58 -0.46 C0.73 0.09, -0.19 0.58, -0.24 0.55" stroke="#e03131" stroke-width="1" fill="none"></path></g></g><mask></mask><g stroke-linecap="round"><g transform="translate(289.80283155157724 692.7903613666797) rotate(0 38.58599110596782 3.8876540365893675)"><path d="M0.66 1.01 C1.16 1.55, 1.18 2.78, 2.9 3.58 C4.62 4.37, 7.66 4.83, 10.98 5.76 C14.3 6.7, 17.93 8.82, 22.84 9.21 C27.75 9.6, 33.83 8.49, 40.43 8.1 C47.02 7.71, 56.64 7.86, 62.41 6.86 C68.18 5.86, 72.67 3.31, 75.04 2.1 C77.4 0.88, 76.42 -0.13, 76.61 -0.44 M-0.45 0.49 C-0.03 1.22, 0.61 4.15, 2.4 5.2 C4.2 6.25, 6.83 6.47, 10.31 6.81 C13.79 7.16, 17.93 7.01, 23.28 7.28 C28.64 7.55, 36.27 8.71, 42.45 8.45 C48.62 8.19, 54.75 6.47, 60.33 5.71 C65.92 4.95, 72.84 5, 75.94 3.91 C79.05 2.82, 78.67 -0.02, 78.96 -0.81" stroke="#e03131" stroke-width="1" fill="none"></path></g></g><mask></mask><g stroke-linecap="round"><g transform="translate(288.77097422907343 663.8263060314566) rotate(0 38.58599110596782 3.8876540365893675)"><path d="M0.86 0.16 C1.12 0.48, 0.49 1.68, 2.21 2.9 C3.93 4.12, 7.85 6.63, 11.17 7.47 C14.5 8.31, 17.16 7.86, 22.15 7.94 C27.13 8.02, 34.34 8.27, 41.08 7.96 C47.82 7.66, 57.1 6.94, 62.58 6.11 C68.06 5.29, 71.71 3.98, 73.98 3 C76.25 2.02, 75.78 0.78, 76.19 0.24 M-0.14 -0.8 C-0.08 0.2, -0.43 3.08, 1.36 4.17 C3.15 5.26, 7.13 4.96, 10.6 5.76 C14.08 6.57, 17.36 8.59, 22.23 9.01 C27.09 9.42, 33.39 8.37, 39.78 8.24 C46.17 8.12, 54.84 9.34, 60.59 8.23 C66.35 7.13, 71.38 2.96, 74.33 1.63 C77.28 0.29, 77.7 0.76, 78.31 0.22" stroke="#e03131" stroke-width="1" fill="none"></path></g></g><mask></mask><g stroke-linecap="round" transform="translate(287.7130252469914 628.5318090832682) rotate(0 38.29876800932749 7.745637696424012)"><path d="M41.24 0.16 C48.95 0.24, 59.23 1.32, 65.03 2.42 C70.83 3.53, 75.22 5.21, 76.02 6.76 C76.83 8.31, 74.39 10.36, 69.86 11.72 C65.33 13.07, 56.72 14.39, 48.83 14.89 C40.94 15.39, 30.03 15.32, 22.51 14.73 C14.99 14.13, 7.31 12.77, 3.72 11.3 C0.12 9.82, -1.08 7.55, 0.92 5.88 C2.92 4.21, 8.77 2.21, 15.72 1.28 C22.67 0.36, 38.02 0.55, 42.63 0.33 C47.24 0.12, 43.48 -0.06, 43.37 -0.02 M34.54 0.52 C42.05 0.23, 52.19 0.41, 58.98 1.3 C65.77 2.2, 72.98 4.36, 75.29 5.88 C77.6 7.4, 76.33 9.05, 72.86 10.42 C69.38 11.79, 61.83 13.18, 54.45 14.09 C47.07 15, 36.32 16.26, 28.55 15.88 C20.79 15.5, 12.49 13.25, 7.85 11.82 C3.22 10.39, 0.3 8.89, 0.75 7.32 C1.19 5.75, 4.98 3.66, 10.53 2.39 C16.08 1.13, 29.95 0.05, 34.03 -0.28 C38.12 -0.61, 34.98 0.12, 35.05 0.4" stroke="#e03131" stroke-width="1" fill="none"></path></g><g stroke-linecap="round" transform="translate(324.2050123522139 653.0084767631718) rotate(0 5.613051577080853 6.091879242227776)"><path d="M5.15 0.22 C6.23 0, 7.55 0.27, 8.53 0.94 C9.51 1.61, 10.65 2.97, 11.04 4.23 C11.44 5.48, 11.43 7.24, 10.91 8.46 C10.4 9.69, 9.09 10.98, 7.94 11.59 C6.79 12.21, 5.23 12.49, 4.02 12.15 C2.81 11.81, 1.37 10.7, 0.66 9.55 C-0.06 8.41, -0.48 6.54, -0.27 5.28 C-0.07 4.02, 0.95 2.91, 1.9 1.99 C2.86 1.07, 4.8 0.1, 5.47 -0.25 C6.14 -0.59, 5.94 -0.26, 5.93 -0.07 M5.17 -0.01 C6.29 -0.07, 8.66 1.07, 9.59 1.87 C10.51 2.67, 10.7 3.67, 10.71 4.81 C10.72 5.96, 10.31 7.46, 9.65 8.74 C8.99 10.02, 7.71 12.09, 6.76 12.51 C5.82 12.92, 4.89 11.82, 3.97 11.24 C3.06 10.66, 1.97 10.09, 1.3 9.02 C0.63 7.95, -0.15 6.15, -0.03 4.81 C0.08 3.46, 0.9 1.72, 2 0.95 C3.1 0.18, 5.98 0.25, 6.59 0.21 C7.2 0.17, 5.83 0.63, 5.67 0.7" stroke="#e03131" stroke-width="1" fill="none"></path></g><g stroke-linecap="round" transform="translate(324.5561541361475 679.2250910502369) rotate(0 5.613051577080853 6.091879242227776)"><path d="M5.6 -0.22 C6.76 -0.31, 8.51 0.4, 9.49 1.3 C10.46 2.19, 11.32 3.78, 11.46 5.13 C11.6 6.49, 11.05 8.25, 10.33 9.42 C9.61 10.59, 8.35 11.77, 7.14 12.16 C5.92 12.54, 4.19 12.32, 3.04 11.73 C1.9 11.14, 0.71 9.74, 0.26 8.61 C-0.19 7.47, 0.03 6.19, 0.34 4.91 C0.66 3.63, 1.19 1.77, 2.16 0.92 C3.12 0.07, 5.45 -0.1, 6.12 -0.17 C6.78 -0.25, 6.14 0.32, 6.16 0.49 M6.7 0.36 C7.87 0.4, 8.76 0.8, 9.39 1.64 C10.03 2.48, 10.51 3.9, 10.51 5.39 C10.52 6.87, 9.97 9.51, 9.41 10.55 C8.85 11.58, 8.15 11.42, 7.17 11.58 C6.19 11.74, 4.7 12.06, 3.54 11.51 C2.38 10.96, 0.77 9.57, 0.21 8.28 C-0.36 6.99, -0.42 4.98, 0.13 3.78 C0.67 2.57, 2.45 1.59, 3.48 1.07 C4.51 0.55, 5.87 0.79, 6.33 0.65 C6.8 0.51, 6.25 0.26, 6.29 0.24" stroke="#e03131" stroke-width="1" fill="none"></path></g><g stroke-linecap="round" transform="translate(325.2050123522139 707.9938176215433) rotate(357.5021844865888 5.613051577080853 6.091879242227776)"><path d="M6.18 -0.38 C7.43 -0.34, 9.06 0.55, 9.91 1.54 C10.76 2.54, 11.23 4.2, 11.27 5.59 C11.31 6.98, 10.89 8.8, 10.12 9.88 C9.36 10.96, 7.89 11.82, 6.68 12.07 C5.47 12.33, 3.85 11.94, 2.85 11.41 C1.84 10.87, 1.13 10.07, 0.66 8.86 C0.2 7.65, -0.23 5.51, 0.06 4.17 C0.35 2.83, 1.37 1.47, 2.4 0.84 C3.42 0.2, 5.48 0.44, 6.2 0.38 C6.91 0.31, 6.61 0.47, 6.69 0.44 M5.13 -0.46 C6.12 -0.69, 7.59 -0.21, 8.49 0.8 C9.4 1.81, 10.16 4.32, 10.58 5.62 C10.99 6.93, 11.37 7.58, 10.98 8.63 C10.58 9.67, 9.45 11.37, 8.21 11.91 C6.97 12.44, 4.82 12.35, 3.55 11.84 C2.28 11.33, 1.04 9.93, 0.58 8.84 C0.13 7.74, 0.62 6.4, 0.83 5.26 C1.04 4.12, 1.06 2.88, 1.82 2.01 C2.58 1.14, 4.74 0.39, 5.39 0.04 C6.04 -0.31, 5.77 -0.07, 5.72 -0.08" stroke="#e03131" stroke-width="1" fill="none"></path></g><g stroke-linecap="round"><g transform="translate(61.33111086012309 631.8305279070486) rotate(0 38.504325523915156 41.817628913120245)"><path d="M-0.77 0.78 C-0.68 13.15, 0.91 60.21, 0.98 74.06 C1.06 87.91, -0.76 81.66, -0.31 83.89 C0.13 86.12, 0.59 86.28, 3.65 87.44 C6.71 88.6, 11.87 90.36, 18.04 90.85 C24.22 91.35, 33.03 90.63, 40.71 90.41 C48.39 90.2, 58.4 90.37, 64.12 89.56 C69.84 88.76, 72.97 86.59, 75.02 85.59 C77.08 84.59, 76.09 85.09, 76.44 83.58 C76.78 82.06, 77.04 89.22, 77.08 76.49 C77.12 63.77, 76.94 20.18, 76.68 7.24 C76.42 -5.7, 76.26 0.61, 75.52 -1.14 C74.78 -2.89, 74.83 -2.53, 72.23 -3.25 C69.63 -3.98, 65.86 -4.74, 59.9 -5.52 C53.95 -6.31, 43.37 -7.84, 36.49 -7.97 C29.62 -8.09, 24.17 -7.13, 18.67 -6.28 C13.17 -5.43, 6.55 -3.85, 3.52 -2.87 C0.49 -1.88, 1.2 -0.74, 0.49 -0.38 C-0.23 -0.03, -0.71 -0.71, -0.78 -0.73 M1.02 0.14 C0.98 12.63, 0.79 60.81, 0.42 75 C0.04 89.19, -1.8 83.02, -1.25 85.28 C-0.7 87.54, 0.73 87.52, 3.73 88.53 C6.72 89.55, 10.35 90.73, 16.72 91.38 C23.09 92.03, 34.48 92.38, 41.94 92.42 C49.41 92.47, 56.19 92.9, 61.52 91.64 C66.86 90.39, 71.15 86.42, 73.93 84.88 C76.72 83.34, 77.57 83.87, 78.22 82.42 C78.88 80.97, 78.08 89.06, 77.86 76.16 C77.64 63.27, 77 18.08, 76.9 5.05 C76.81 -7.98, 77.96 -0.55, 77.28 -2.01 C76.6 -3.47, 75.35 -3.13, 72.84 -3.69 C70.34 -4.25, 68.32 -4.58, 62.24 -5.39 C56.17 -6.2, 43.44 -8.04, 36.39 -8.54 C29.33 -9.04, 25.58 -9.49, 19.91 -8.38 C14.24 -7.28, 5.78 -3.3, 2.38 -1.93 C-1.03 -0.57, -0.3 -0.37, -0.52 -0.19 C-0.74 -0.01, 0.9 -1.07, 1.08 -0.85" stroke="#e03131" stroke-width="1" fill="none"></path></g></g><mask></mask><g stroke-linecap="round"><g transform="translate(61.85504029839808 688.9568115647784) rotate(0 38.58599110596782 3.8876540365893675)"><path d="M0.73 -1.14 C1.14 -0.68, 0.08 2.31, 1.71 3.54 C3.33 4.78, 6.97 5.47, 10.48 6.26 C13.99 7.04, 17.77 8.15, 22.76 8.27 C27.74 8.4, 33.72 7.29, 40.4 7.01 C47.09 6.74, 57.21 7.4, 62.88 6.62 C68.55 5.84, 72.09 3.45, 74.41 2.35 C76.73 1.25, 76.33 0.45, 76.79 0.03 M-0.35 0.87 C-0.06 1.48, -1.06 4.04, 0.59 5.15 C2.24 6.27, 5.78 6.84, 9.55 7.56 C13.31 8.29, 17.68 9.64, 23.15 9.51 C28.63 9.38, 36.09 7.49, 42.41 6.8 C48.73 6.1, 55.62 5.76, 61.05 5.34 C66.48 4.93, 72.57 5.2, 74.99 4.3 C77.41 3.39, 75.47 0.87, 75.57 -0.08" stroke="#e03131" stroke-width="1" fill="none"></path></g></g><mask></mask><g stroke-linecap="round"><g transform="translate(60.82318297589404 659.9927562295553) rotate(0 38.58599110596782 3.8876540365893675)"><path d="M-0.32 0.13 C-0.16 0.89, -0.19 2.33, 1.71 3.39 C3.61 4.46, 7.69 5.96, 11.09 6.54 C14.49 7.11, 17.05 6.66, 22.12 6.85 C27.2 7.05, 34.91 7.8, 41.55 7.72 C48.19 7.64, 56.52 7.07, 61.95 6.37 C67.39 5.66, 71.61 4.56, 74.15 3.48 C76.7 2.39, 76.73 0.33, 77.2 -0.16 M1.71 -0.85 C1.62 0.21, -0.87 3.45, 0.6 4.92 C2.06 6.39, 6.88 7.59, 10.47 7.99 C14.07 8.4, 17.19 7.37, 22.19 7.35 C27.19 7.33, 33.65 7.67, 40.5 7.88 C47.35 8.09, 57.62 9.54, 63.3 8.62 C68.98 7.7, 72.45 3.85, 74.6 2.35 C76.75 0.85, 75.48 0.08, 76.19 -0.38" stroke="#e03131" stroke-width="1" fill="none"></path></g></g><mask></mask><g stroke-linecap="round" transform="translate(59.76523399381199 624.6982592813669) rotate(0 38.29876800932749 7.745637696424012)"><path d="M40.11 0.35 C47.87 0.36, 58.45 1.01, 64.44 2.07 C70.43 3.13, 75.06 5.04, 76.06 6.7 C77.05 8.36, 74.89 10.63, 70.44 12.03 C65.98 13.42, 57.15 14.69, 49.32 15.09 C41.49 15.5, 31.06 15.06, 23.46 14.47 C15.85 13.87, 7.38 13.01, 3.69 11.51 C0.01 10.01, -0.65 7.18, 1.36 5.46 C3.36 3.74, 8.97 2.06, 15.74 1.18 C22.5 0.3, 37.32 0.34, 41.93 0.2 C46.55 0.05, 43.47 0.17, 43.44 0.31 M35.65 -0.29 C43.45 -0.37, 54 0.87, 60.67 1.81 C67.33 2.75, 73.58 3.67, 75.65 5.35 C77.73 7.02, 76.8 10.16, 73.12 11.86 C69.43 13.56, 61.2 15.01, 53.54 15.55 C45.88 16.08, 34.91 15.6, 27.17 15.09 C19.43 14.57, 11.64 13.77, 7.1 12.46 C2.55 11.15, -0.87 8.83, -0.09 7.21 C0.69 5.59, 5.77 4.04, 11.75 2.73 C17.73 1.42, 31.78 -0.28, 35.81 -0.66 C39.83 -1.05, 35.91 0.29, 35.88 0.41" stroke="#e03131" stroke-width="1" fill="none"></path></g><g stroke-linecap="round" transform="translate(96.2572210990345 649.1749269612704) rotate(0 5.613051577080853 6.091879242227776)"><path d="M5.02 -0.04 C6.19 -0.28, 7.58 0.22, 8.61 1 C9.65 1.77, 10.88 3.34, 11.23 4.62 C11.59 5.9, 11.25 7.57, 10.76 8.67 C10.27 9.78, 9.47 10.67, 8.29 11.26 C7.12 11.86, 4.9 12.63, 3.73 12.25 C2.56 11.88, 1.85 10.21, 1.27 9.02 C0.7 7.83, 0.22 6.31, 0.28 5.12 C0.35 3.93, 0.79 2.72, 1.69 1.88 C2.6 1.04, 5.02 0.35, 5.72 0.09 C6.42 -0.16, 5.95 0.31, 5.89 0.34 M4.64 0.4 C5.78 0.1, 7.62 -0.38, 8.73 0.37 C9.84 1.11, 11.03 3.43, 11.32 4.87 C11.61 6.31, 11.09 7.96, 10.49 9.03 C9.89 10.11, 8.62 10.76, 7.72 11.33 C6.81 11.9, 6.18 12.64, 5.05 12.45 C3.92 12.25, 1.76 11.16, 0.93 10.17 C0.1 9.18, -0.04 7.97, 0.07 6.5 C0.18 5.04, 0.78 2.42, 1.59 1.39 C2.41 0.35, 4.5 0.63, 4.99 0.31 C5.47 -0.02, 4.63 -0.71, 4.53 -0.55" stroke="#e03131" stroke-width="1" fill="none"></path></g><g stroke-linecap="round" transform="translate(96.6083628829681 675.3915412483356) rotate(0 5.613051577080853 6.091879242227776)"><path d="M6.25 -0.07 C7.45 0.07, 9.22 1.15, 10.06 2.15 C10.91 3.16, 11.28 4.73, 11.32 5.97 C11.37 7.21, 11.17 8.52, 10.33 9.58 C9.49 10.65, 7.47 12.17, 6.28 12.39 C5.08 12.61, 4.1 11.65, 3.15 10.9 C2.21 10.15, 1.08 8.99, 0.61 7.87 C0.14 6.76, -0.09 5.37, 0.31 4.22 C0.71 3.06, 1.93 1.58, 3.01 0.93 C4.09 0.28, 6.2 0.49, 6.79 0.32 C7.39 0.16, 6.67 -0.15, 6.58 -0.08 M5.23 -0.49 C6.44 -0.63, 8.24 0.83, 9.14 1.77 C10.05 2.71, 10.49 4.03, 10.66 5.14 C10.82 6.26, 10.49 7.34, 10.15 8.47 C9.81 9.6, 9.64 11.32, 8.61 11.95 C7.57 12.59, 5.2 12.56, 3.95 12.27 C2.71 11.99, 1.76 11.44, 1.14 10.22 C0.51 9.01, 0.1 6.33, 0.21 4.98 C0.32 3.62, 1.04 3.04, 1.8 2.09 C2.56 1.14, 4.31 -0.48, 4.77 -0.71 C5.23 -0.94, 4.61 0.44, 4.56 0.72" stroke="#e03131" stroke-width="1" fill="none"></path></g><g stroke-linecap="round" transform="translate(97.2572210990345 704.160267819642) rotate(357.5021844865888 5.613051577080853 6.091879242227776)"><path d="M5.65 0.01 C6.85 -0.08, 8.23 0.5, 9.21 1.25 C10.18 1.99, 11.34 3.15, 11.5 4.49 C11.67 5.83, 10.78 8.17, 10.19 9.3 C9.61 10.43, 8.99 10.9, 7.98 11.27 C6.96 11.64, 5.28 11.83, 4.09 11.52 C2.89 11.22, 1.44 10.48, 0.81 9.44 C0.18 8.4, 0.1 6.56, 0.3 5.28 C0.51 4, 1.17 2.68, 2.04 1.75 C2.91 0.81, 4.94 -0.06, 5.53 -0.32 C6.12 -0.59, 5.58 0.02, 5.57 0.16 M6.62 0.76 C7.67 1.03, 8.65 1.81, 9.32 2.61 C9.99 3.42, 10.4 4.35, 10.63 5.6 C10.85 6.84, 11.34 8.97, 10.67 10.09 C10.01 11.2, 7.89 11.95, 6.64 12.29 C5.39 12.62, 4.18 12.84, 3.19 12.1 C2.19 11.37, 1.12 9.1, 0.67 7.85 C0.21 6.61, 0.18 5.88, 0.44 4.61 C0.71 3.35, 1.36 0.94, 2.24 0.28 C3.13 -0.39, 5.19 0.57, 5.75 0.61 C6.31 0.64, 5.54 0.55, 5.58 0.49" stroke="#e03131" stroke-width="1" fill="none"></path></g><g stroke-linecap="round"><g transform="translate(523.7598828327793 625.6874309832205) rotate(0 38.504325523915156 41.817628913120245)"><path d="M-0.1 1.16 C-0.09 14.03, 0.93 62.54, 0.88 76.29 C0.83 90.03, -1.04 81.75, -0.39 83.62 C0.27 85.49, 1.72 86.53, 4.83 87.52 C7.95 88.51, 12.4 88.93, 18.31 89.54 C24.21 90.16, 32.62 91.24, 40.24 91.23 C47.87 91.22, 58.09 90.14, 64.05 89.48 C70.02 88.82, 73.82 88.25, 76.02 87.28 C78.21 86.3, 76.92 85.63, 77.24 83.62 C77.55 81.61, 77.81 88.07, 77.91 75.23 C78 62.38, 78.15 19.09, 77.8 6.56 C77.45 -5.97, 76.69 1.83, 75.81 0.06 C74.94 -1.71, 74.92 -3.19, 72.57 -4.06 C70.23 -4.94, 67.5 -4.52, 61.75 -5.19 C55.99 -5.86, 45.28 -7.98, 38.02 -8.07 C30.77 -8.16, 24.06 -6.66, 18.2 -5.71 C12.34 -4.76, 5.71 -3.34, 2.86 -2.39 C0.01 -1.44, 1.44 -0.5, 1.11 -0.03 C0.77 0.45, 1.15 0.64, 0.84 0.46 M-1.61 0.72 C-1.78 13.36, 0.22 60.71, 0.26 74.73 C0.3 88.76, -2.24 82.54, -1.36 84.86 C-0.48 87.18, 2.45 87.9, 5.53 88.65 C8.61 89.41, 11.17 89.16, 17.12 89.39 C23.07 89.61, 33.23 89.65, 41.23 90.01 C49.22 90.36, 59.38 91.94, 65.08 91.52 C70.79 91.09, 73.66 88.96, 75.45 87.46 C77.23 85.95, 75.78 84.08, 75.79 82.49 C75.79 80.89, 74.99 90.36, 75.46 77.89 C75.94 65.42, 78.23 20.69, 78.61 7.68 C78.99 -5.33, 79.21 1.92, 77.73 -0.18 C76.24 -2.28, 72.43 -4.14, 69.71 -4.93 C66.98 -5.71, 66.56 -4.25, 61.39 -4.88 C56.23 -5.51, 45.75 -8.26, 38.72 -8.7 C31.69 -9.14, 24.81 -8.16, 19.2 -7.52 C13.58 -6.88, 8.16 -6.18, 5.03 -4.86 C1.9 -3.55, 1.28 -0.62, 0.42 0.35 C-0.43 1.32, 0.08 0.99, -0.1 0.95" stroke="#e03131" stroke-width="1" fill="none"></path></g></g><mask></mask><g stroke-linecap="round"><g transform="translate(524.2838122710543 682.8137146409503) rotate(0 38.58599110596782 3.8876540365893675)"><path d="M0.63 1.08 C0.91 1.44, -0.2 2.4, 1.64 3.27 C3.48 4.15, 8.1 5.72, 11.66 6.33 C15.23 6.95, 18.31 6.71, 23.02 6.96 C27.73 7.21, 33.3 7.9, 39.93 7.83 C46.56 7.76, 56.9 7.17, 62.81 6.54 C68.72 5.9, 72.94 5.11, 75.4 4.04 C77.87 2.96, 77.16 0.99, 77.59 0.08 M-0.51 0.61 C-0.4 1.66, -1.5 3.56, 0.48 4.73 C2.46 5.91, 7.51 7.22, 11.35 7.68 C15.2 8.14, 18.5 7.46, 23.55 7.52 C28.61 7.58, 35.46 7.81, 41.69 8.04 C47.93 8.27, 55.76 9.68, 60.95 8.88 C66.14 8.07, 70.2 4.69, 72.84 3.21 C75.48 1.73, 76.13 0.47, 76.79 -0.01" stroke="#e03131" stroke-width="1" fill="none"></path></g></g><mask></mask><g stroke-linecap="round"><g transform="translate(523.2519549485503 653.8496593057272) rotate(0 38.58599110596782 3.8876540365893675)"><path d="M-0.4 -0.14 C-0.02 0.26, 0.94 2.57, 2.9 3.47 C4.85 4.36, 8.22 4.53, 11.35 5.23 C14.48 5.93, 16.63 7.27, 21.65 7.67 C26.68 8.07, 34.6 7.58, 41.48 7.64 C48.36 7.7, 57.37 8.74, 62.95 8.05 C68.52 7.37, 72.44 5.1, 74.96 3.52 C77.47 1.94, 77.5 -0.81, 78.03 -1.42 M1.59 -1.26 C1.84 -0.14, 0.85 3.83, 2.4 5.04 C3.95 6.25, 7.69 5.4, 10.87 6 C14.05 6.59, 16.55 8.3, 21.47 8.6 C26.39 8.89, 33.78 7.93, 40.4 7.75 C47.01 7.57, 55.25 8.42, 61.15 7.53 C67.06 6.64, 73.1 3.45, 75.82 2.42 C78.54 1.39, 77.27 1.99, 77.45 1.35" stroke="#e03131" stroke-width="1" fill="none"></path></g></g><mask></mask><g stroke-linecap="round" transform="translate(522.1940059664682 618.5551623575387) rotate(0 38.29876800932749 7.745637696424012)"><path d="M42.53 0.36 C50.37 0.56, 60.15 1.6, 65.89 2.78 C71.62 3.96, 76.38 5.8, 76.94 7.46 C77.5 9.11, 74.29 11.35, 69.26 12.72 C64.23 14.08, 54.77 15.39, 46.77 15.67 C38.78 15.95, 28.52 15.14, 21.28 14.41 C14.04 13.68, 6.6 12.71, 3.31 11.27 C0.02 9.84, -0.82 7.43, 1.56 5.82 C3.94 4.2, 10.43 2.53, 17.59 1.57 C24.75 0.62, 39.65 0.31, 44.52 0.07 C49.38 -0.17, 46.81 -0.07, 46.78 0.14 M37.98 -0.72 C45.73 -0.95, 56.93 0.14, 63.31 1.32 C69.69 2.51, 74.9 4.76, 76.25 6.39 C77.6 8.01, 75.69 9.58, 71.42 11.08 C67.16 12.59, 58.5 14.74, 50.66 15.43 C42.82 16.11, 32.1 15.91, 24.39 15.2 C16.68 14.49, 8.37 12.66, 4.38 11.16 C0.4 9.66, -1.02 7.87, 0.46 6.21 C1.93 4.54, 6.88 2.23, 13.24 1.15 C19.6 0.08, 34.37 0.03, 38.62 -0.26 C42.86 -0.54, 38.81 -0.6, 38.7 -0.54" stroke="#e03131" stroke-width="1" fill="none"></path></g><g stroke-linecap="round" transform="translate(558.6859930716907 643.0318300374423) rotate(0 5.613051577080853 6.091879242227776)"><path d="M4.44 0.45 C5.65 0.14, 7.75 0.35, 8.85 1.01 C9.96 1.66, 10.83 3.13, 11.09 4.39 C11.36 5.66, 10.88 7.47, 10.45 8.59 C10.02 9.71, 9.45 10.46, 8.5 11.12 C7.55 11.77, 5.97 12.67, 4.76 12.53 C3.56 12.39, 1.99 11.29, 1.27 10.26 C0.54 9.23, 0.39 7.71, 0.39 6.35 C0.39 5, 0.46 3.2, 1.27 2.12 C2.08 1.04, 4.6 0.13, 5.26 -0.12 C5.92 -0.36, 5.32 0.46, 5.26 0.65 M6.41 -0.48 C7.67 -0.33, 9.01 0.85, 9.82 1.77 C10.62 2.69, 11.28 3.67, 11.25 5.04 C11.21 6.42, 10.41 8.83, 9.6 10.02 C8.79 11.2, 7.54 11.99, 6.36 12.18 C5.19 12.37, 3.54 11.78, 2.53 11.16 C1.53 10.54, 0.84 9.68, 0.36 8.46 C-0.13 7.24, -0.73 5.11, -0.36 3.83 C0.01 2.56, 1.46 1.57, 2.59 0.82 C3.71 0.07, 5.88 -0.44, 6.39 -0.67 C6.9 -0.9, 5.78 -0.84, 5.66 -0.57" stroke="#e03131" stroke-width="1" fill="none"></path></g><g stroke-linecap="round" transform="translate(559.0371348556243 669.2484443245074) rotate(0 5.613051577080853 6.091879242227776)"><path d="M6.88 0.25 C8.09 0.36, 9.38 1.42, 10.03 2.43 C10.68 3.45, 10.79 5.15, 10.8 6.35 C10.81 7.55, 10.75 8.61, 10.09 9.64 C9.44 10.67, 8.06 12.17, 6.85 12.51 C5.65 12.86, 3.89 12.36, 2.88 11.71 C1.87 11.06, 1.21 9.86, 0.77 8.59 C0.33 7.32, -0.16 5.41, 0.24 4.1 C0.64 2.78, 2.06 1.28, 3.18 0.7 C4.3 0.11, 6.37 0.59, 6.96 0.58 C7.56 0.56, 6.79 0.63, 6.75 0.6 M4.48 0.13 C5.53 -0.25, 7.18 -0.59, 8.13 0.06 C9.07 0.71, 9.79 2.7, 10.16 4.02 C10.53 5.34, 10.69 6.86, 10.34 7.98 C9.99 9.09, 8.98 10.05, 8.07 10.72 C7.16 11.39, 6.04 12.16, 4.86 11.99 C3.68 11.81, 1.78 10.63, 1 9.67 C0.22 8.71, 0.12 7.55, 0.17 6.24 C0.22 4.93, 0.72 2.93, 1.33 1.8 C1.93 0.67, 3.37 -0.34, 3.8 -0.54 C4.22 -0.74, 3.75 0.45, 3.87 0.6" stroke="#e03131" stroke-width="1" fill="none"></path></g><g stroke-linecap="round" transform="translate(559.6859930716907 698.0171708958138) rotate(357.5021844865888 5.613051577080853 6.091879242227776)"><path d="M6.82 0.46 C7.82 0.64, 8.75 1.69, 9.51 2.6 C10.26 3.5, 11.24 4.55, 11.33 5.87 C11.42 7.18, 10.84 9.4, 10.04 10.48 C9.24 11.57, 7.67 12.18, 6.52 12.38 C5.38 12.57, 4.21 12.35, 3.17 11.64 C2.13 10.93, 0.66 9.42, 0.27 8.11 C-0.12 6.8, 0.34 4.93, 0.83 3.79 C1.32 2.65, 2.19 1.82, 3.18 1.28 C4.18 0.73, 6.16 0.71, 6.82 0.49 C7.48 0.28, 7.26 -0.08, 7.16 -0.01 M4.7 -0.48 C5.68 -0.69, 6.93 0.44, 7.86 1.22 C8.78 2, 9.84 3.13, 10.24 4.22 C10.63 5.32, 10.54 6.6, 10.21 7.77 C9.88 8.93, 9.27 10.61, 8.24 11.22 C7.22 11.83, 5.18 11.7, 4.05 11.45 C2.92 11.2, 2.09 10.74, 1.45 9.73 C0.82 8.71, 0.35 6.75, 0.25 5.36 C0.15 3.98, 0.19 2.26, 0.86 1.43 C1.52 0.61, 3.58 0.66, 4.24 0.39 C4.9 0.12, 4.85 -0.15, 4.82 -0.2" stroke="#e03131" stroke-width="1" fill="none"></path></g><g stroke-linecap="round"><g transform="translate(288.28564453125 670.5714950561523) rotate(0 -75.42855834960938 0)"><path d="M0.09 -0.65 C-25.15 -0.77, -126.54 -0.42, -151.6 -0.2" stroke="#e03131" stroke-width="2.5" fill="none" stroke-dasharray="8 10"></path></g><g transform="translate(288.28564453125 670.5714950561523) rotate(0 -75.42855834960938 0)"><path d="M-128.16 -8.88 C-135.95 -7.61, -141.93 -2.93, -151.6 -0.2" stroke="#e03131" stroke-width="2.5" fill="none"></path></g><g transform="translate(288.28564453125 670.5714950561523) rotate(0 -75.42855834960938 0)"><path d="M-128.06 8.22 C-135.95 4.58, -141.96 4.34, -151.6 -0.2" stroke="#e03131" stroke-width="2.5" fill="none"></path></g></g><mask></mask><g stroke-linecap="round"><g transform="translate(363.7142333984375 663.1428451538086) rotate(0 82.00006103515625 0.2857208251953125)"><path d="M-0.44 -0.86 C26.56 -0.94, 135.42 -0.07, 162.82 0.03" stroke="#e03131" stroke-width="2.5" fill="none" stroke-dasharray="8 10"></path></g><g transform="translate(363.7142333984375 663.1428451538086) rotate(0 82.00006103515625 0.2857208251953125)"><path d="M139.27 8.44 C146.52 3.44, 155.77 2.2, 162.82 0.03" stroke="#e03131" stroke-width="2.5" fill="none"></path></g><g transform="translate(363.7142333984375 663.1428451538086) rotate(0 82.00006103515625 0.2857208251953125)"><path d="M139.38 -8.66 C146.67 -7.33, 155.87 -2.24, 162.82 0.03" stroke="#e03131" stroke-width="2.5" fill="none"></path></g></g><mask></mask><g stroke-linecap="round"><g transform="translate(93.53037052484706 557.8924021641164) rotate(0 2.0310132881537584 37.32688319294067)"><path d="M-0.76 0.56 C-0.2 13.15, 3.47 62.39, 4.26 74.66 M1.04 -0.2 C1.39 12.67, 3.05 63.63, 3.42 76.2" stroke="#e03131" stroke-width="2" fill="none"></path></g><g transform="translate(93.53037052484706 557.8924021641164) rotate(0 2.0310132881537584 37.32688319294067)"><path d="M9.34 23.42 C6.66 15.13, 1.96 6.16, -0.76 0.56 M9.34 23.42 C7.43 18.05, 4.9 10.54, -0.76 0.56" stroke="#e03131" stroke-width="2" fill="none"></path></g><g transform="translate(93.53037052484706 557.8924021641164) rotate(0 2.0310132881537584 37.32688319294067)"><path d="M-7.72 24.57 C-4.01 15.96, -2.33 6.56, -0.76 0.56 M-7.72 24.57 C-5.2 19.02, -3.31 11.21, -0.76 0.56" stroke="#e03131" stroke-width="2" fill="none"></path></g><g transform="translate(93.53037052484706 557.8924021641164) rotate(0 2.0310132881537584 37.32688319294067)"><path d="M-5.86 52.98 C-1.63 62.06, 0.92 70.33, 3.42 76.2 M-5.86 52.98 C-2.99 59.7, -0.5 64.12, 3.42 76.2" stroke="#e03131" stroke-width="2" fill="none"></path></g><g transform="translate(93.53037052484706 557.8924021641164) rotate(0 2.0310132881537584 37.32688319294067)"><path d="M11.24 52.45 C9.06 61.62, 5.22 70.09, 3.42 76.2 M11.24 52.45 C9.67 59.18, 7.73 63.74, 3.42 76.2" stroke="#e03131" stroke-width="2" fill="none"></path></g></g><mask></mask><g stroke-linecap="round"><g transform="translate(322.57147216796875 553.1428146362305) rotate(0 2.2857666015625 42.571441650390625)"><path d="M0.81 -0.53 C1.96 13.34, 5.25 69.93, 5.74 84.27 M-0.23 1.81 C0.98 16.32, 4.33 71.76, 5.41 85.35" stroke="#e03131" stroke-width="2" fill="none"></path></g><g transform="translate(322.57147216796875 553.1428146362305) rotate(0 2.2857666015625 42.571441650390625)"><path d="M10.79 22.39 C7.7 19.82, 5.13 11.92, 0.81 -0.53 M10.79 22.39 C7.45 14.89, 4.54 7.07, 0.81 -0.53" stroke="#e03131" stroke-width="2" fill="none"></path></g><g transform="translate(322.57147216796875 553.1428146362305) rotate(0 2.2857666015625 42.571441650390625)"><path d="M-6.28 23.44 C-5.96 20.54, -5.11 12.43, 0.81 -0.53 M-6.28 23.44 C-4.01 15.5, -1.31 7.34, 0.81 -0.53" stroke="#e03131" stroke-width="2" fill="none"></path></g><g transform="translate(322.57147216796875 553.1428146362305) rotate(0 2.2857666015625 42.571441650390625)"><path d="M-4.73 62.5 C-3.38 68.96, -1.92 70.23, 5.41 85.35 M-4.73 62.5 C-1.01 69.95, 2.7 77.19, 5.41 85.35" stroke="#e03131" stroke-width="2" fill="none"></path></g><g transform="translate(322.57147216796875 553.1428146362305) rotate(0 2.2857666015625 42.571441650390625)"><path d="M12.33 61.32 C10.27 68.14, 8.31 69.65, 5.41 85.35 M12.33 61.32 C10.45 69.26, 8.54 76.89, 5.41 85.35" stroke="#e03131" stroke-width="2" fill="none"></path></g></g><mask></mask><g stroke-linecap="round"><g transform="translate(552.8572998046875 551.9999923706055) rotate(0 4 36.00001525878906)"><path d="M1.16 -1.08 C2.5 11, 6.79 60.36, 7.99 72.73 M0.31 0.97 C1.5 12.68, 5.8 59.25, 7.03 70.99" stroke="#e03131" stroke-width="2" fill="none"></path></g><g transform="translate(552.8572998046875 551.9999923706055) rotate(0 4 36.00001525878906)"><path d="M11.85 21.52 C6.88 15.01, 6.77 8.97, 1.16 -1.08 M11.85 21.52 C7.76 11.78, 3.21 3.88, 1.16 -1.08" stroke="#e03131" stroke-width="2" fill="none"></path></g><g transform="translate(552.8572998046875 551.9999923706055) rotate(0 4 36.00001525878906)"><path d="M-5.18 23.11 C-5.18 15.96, -0.31 9.46, 1.16 -1.08 M-5.18 23.11 C-2.52 12.71, -0.31 4.18, 1.16 -1.08" stroke="#e03131" stroke-width="2" fill="none"></path></g><g transform="translate(552.8572998046875 551.9999923706055) rotate(0 4 36.00001525878906)"><path d="M-3.77 48.45 C-2.35 54.91, 3.82 62.06, 7.03 70.99 M-3.77 48.45 C0.92 56.59, 4.9 66.6, 7.03 70.99" stroke="#e03131" stroke-width="2" fill="none"></path></g><g transform="translate(552.8572998046875 551.9999923706055) rotate(0 4 36.00001525878906)"><path d="M13.25 46.78 C9.7 53.9, 10.9 61.53, 7.03 70.99 M13.25 46.78 C11.2 55.61, 8.42 66.29, 7.03 70.99" stroke="#e03131" stroke-width="2" fill="none"></path></g></g><mask></mask></svg>