<svg version="1.1" xmlns="http://www.w3.org/2000/svg" viewBox="0 0 649.1428680419922 571.4286727905273" width="649.1428680419922" height="571.4286727905273">
  <!-- svg-source:excalidraw -->
  
  <defs>
    <style class="style-fonts">
      @font-face {
        font-family: "Virgil";
        src: url("https://excalidraw.com/Virgil.woff2");
      }
      @font-face {
        font-family: "Cascadia";
        src: url("https://excalidraw.com/Cascadia.woff2");
      }
      @font-face {
        font-family: "Assistant";
        src: url("https://excalidraw.com/Assistant-Regular.woff2");
      }
    </style>
    
  </defs>
  <g stroke-linecap="round" transform="translate(10 389.42870330810547) rotate(0 85.99998474121094 85.99998474121094)"><path d="M107.5 21.5 C117.23 31.93, 125.24 42.79, 150.5 64.5 M107.5 21.5 C123.09 36.57, 138.57 53.5, 150.5 64.5 M150.5 64.5 C171.96 85.68, 170.23 87.8, 150.5 107.5 M150.5 64.5 C170.35 86.58, 172.3 88.07, 150.5 107.5 M150.5 107.5 C134.24 125.63, 116.34 142.93, 107.5 150.5 M150.5 107.5 C138.82 119.29, 126.45 131.85, 107.5 150.5 M107.5 150.5 C86.08 172.73, 85.08 170.07, 64.5 150.5 M107.5 150.5 C86.36 173.02, 83.97 172.2, 64.5 150.5 M64.5 150.5 C48.16 135.9, 36.21 120.72, 21.5 107.5 M64.5 150.5 C54.86 140.02, 44.74 130.4, 21.5 107.5 M21.5 107.5 C-0.35 85.73, 1.01 87.88, 21.5 64.5 M21.5 107.5 C-2.22 85.79, -1.68 86.52, 21.5 64.5 M21.5 64.5 C33.9 52.07, 46.64 38.64, 64.5 21.5 M21.5 64.5 C38.12 49.18, 53.07 33.36, 64.5 21.5 M64.5 21.5 C86.96 0.41, 86.17 0.02, 107.5 21.5 M64.5 21.5 C84.31 1.68, 87.24 0.55, 107.5 21.5" stroke="#2f9e44" stroke-width="2" fill="none"></path></g><g transform="translate(54.43686010047804 437.4286422729492) rotate(0 40.765983096733635 38.9285888671875)"><text x="40.765983096733656" y="0" font-family="Virgil, Segoe UI Emoji" font-size="20.761914062499976px" fill="#2f9e44" text-anchor="middle" style="white-space: pre;" direction="ltr" dominant-baseline="text-before-edge">Company</text><text x="40.765983096733656" y="25.95239257812497" font-family="Virgil, Segoe UI Emoji" font-size="20.761914062499976px" fill="#2f9e44" text-anchor="middle" style="white-space: pre;" direction="ltr" dominant-baseline="text-before-edge">Branch</text><text x="40.765983096733656" y="51.90478515624994" font-family="Virgil, Segoe UI Emoji" font-size="20.761914062499976px" fill="#2f9e44" text-anchor="middle" style="white-space: pre;" direction="ltr" dominant-baseline="text-before-edge">Service</text></g><g stroke-linecap="round" transform="translate(236.5716094970703 388.5714797973633) rotate(0 85.99998474121094 85.99998474121094)"><path d="M107.5 21.5 C115.32 29.83, 127.21 39.49, 150.5 64.5 M107.5 21.5 C116.76 31.56, 127.25 39.37, 150.5 64.5 M150.5 64.5 C172.81 87.54, 171.47 84.32, 150.5 107.5 M150.5 64.5 C170.23 84.7, 173.7 87.07, 150.5 107.5 M150.5 107.5 C132.85 123.27, 117.32 142.27, 107.5 150.5 M150.5 107.5 C138.74 119.44, 125.67 131.49, 107.5 150.5 M107.5 150.5 C87.71 170.07, 84.44 172.09, 64.5 150.5 M107.5 150.5 C84.5 170.21, 85.37 170.6, 64.5 150.5 M64.5 150.5 C51.6 139.98, 42.52 128.69, 21.5 107.5 M64.5 150.5 C56.12 141.04, 46.32 133.47, 21.5 107.5 M21.5 107.5 C1.26 86.76, -1.22 87.43, 21.5 64.5 M21.5 107.5 C1.19 84.52, -1.94 84.97, 21.5 64.5 M21.5 64.5 C35.97 48.4, 51.48 35.52, 64.5 21.5 M21.5 64.5 C38.31 48.9, 54.68 32.23, 64.5 21.5 M64.5 21.5 C87.68 0.38, 84.14 -0.42, 107.5 21.5 M64.5 21.5 C87.42 -0.32, 86.71 -1.06, 107.5 21.5" stroke="#2f9e44" stroke-width="2" fill="none"></path></g><g transform="translate(288.82315826416016 450.00023651123047) rotate(0 34.319969177246094 25)"><text x="34.319969177246094" y="0" font-family="Virgil, Segoe UI Emoji" font-size="20px" fill="#2f9e44" text-anchor="middle" style="white-space: pre;" direction="ltr" dominant-baseline="text-before-edge">Parking</text><text x="34.319969177246094" y="25" font-family="Virgil, Segoe UI Emoji" font-size="20px" fill="#2f9e44" text-anchor="middle" style="white-space: pre;" direction="ltr" dominant-baseline="text-before-edge">Service</text></g><g stroke-linecap="round" transform="translate(467.1428985595703 387.57154083251953) rotate(0 85.99998474121094 85.99998474121094)"><path d="M107.5 21.5 C123.45 36.32, 139.3 50.23, 150.5 64.5 M107.5 21.5 C117.92 32.07, 128.79 42, 150.5 64.5 M150.5 64.5 C173.83 85.83, 170.88 86.64, 150.5 107.5 M150.5 64.5 C173.69 85.39, 170.25 83.91, 150.5 107.5 M150.5 107.5 C139.77 117.64, 131.64 128.92, 107.5 150.5 M150.5 107.5 C134.84 122.35, 120.75 137.82, 107.5 150.5 M107.5 150.5 C87.83 170.69, 84.91 171.01, 64.5 150.5 M107.5 150.5 C86.35 170.6, 84.01 171.61, 64.5 150.5 M64.5 150.5 C49.24 135.41, 34.57 118.31, 21.5 107.5 M64.5 150.5 C52.95 139.68, 40.86 126.61, 21.5 107.5 M21.5 107.5 C0.53 86.3, 0.4 86.32, 21.5 64.5 M21.5 107.5 C0.83 85.52, 1.38 86.53, 21.5 64.5 M21.5 64.5 C33.42 51.21, 46.41 37.94, 64.5 21.5 M21.5 64.5 C30.32 55.24, 41.48 44.76, 64.5 21.5 M64.5 21.5 C84.02 -1.47, 85.97 1.81, 107.5 21.5 M64.5 21.5 C84.36 -1.41, 84.89 -0.61, 107.5 21.5" stroke="#2f9e44" stroke-width="2" fill="none"></path></g><g transform="translate(512.2001037597656 447.4286422729492) rotate(0 41.799957275390625 25)"><text x="41.799957275390625" y="0" font-family="Virgil, Segoe UI Emoji" font-size="20px" fill="#2f9e44" text-anchor="middle" style="white-space: pre;" direction="ltr" dominant-baseline="text-before-edge">Employee</text><text x="41.799957275390625" y="25" font-family="Virgil, Segoe UI Emoji" font-size="20px" fill="#2f9e44" text-anchor="middle" style="white-space: pre;" direction="ltr" dominant-baseline="text-before-edge">Service</text></g><g stroke-linecap="round" transform="translate(50.57159423828125 175.1428451538086) rotate(0 278 53.42857360839844)"><path d="M26.71 0 C132.78 2.52, 236.93 2.44, 529.29 0 M26.71 0 C220.59 -0.65, 413.85 -0.78, 529.29 0 M529.29 0 C546.01 -1.76, 555.32 7.78, 556 26.71 M529.29 0 C549.18 -1.76, 554.33 6.91, 556 26.71 M556 26.71 C554.44 38.67, 555.96 48.81, 556 80.14 M556 26.71 C555.68 39.81, 556.73 53.27, 556 80.14 M556 80.14 C555.4 98.6, 545.48 106.46, 529.29 106.86 M556 80.14 C557.8 96.31, 546.19 108.06, 529.29 106.86 M529.29 106.86 C405.57 104.4, 281.48 104.34, 26.71 106.86 M529.29 106.86 C401.88 105.5, 274.03 105.48, 26.71 106.86 M26.71 106.86 C8.14 105.77, 1.63 96.15, 0 80.14 M26.71 106.86 C9.05 106.34, -2.28 98.84, 0 80.14 M0 80.14 C1.26 67.65, 2.26 55.36, 0 26.71 M0 80.14 C-0.44 69.6, 1.4 57.35, 0 26.71 M0 26.71 C-1.59 9.27, 9.14 -1.6, 26.71 0 M0 26.71 C-2.13 9.19, 10.56 0.09, 26.71 0" stroke="#f08c00" stroke-width="2" fill="none"></path></g><g transform="translate(272.2500991821289 213.1428451538086) rotate(0 66.74996185302734 12.5)"><text x="66.74996185302734" y="0" font-family="Virgil, Segoe UI Emoji" font-size="20px" fill="#f08c00" text-anchor="middle" style="white-space: pre;" direction="ltr" dominant-baseline="text-before-edge">API Gateway</text></g><g stroke-linecap="round"><g transform="translate(67.14297485351562 279.14290618896484) rotate(0 0 68.28569030761713)"><path d="M-0.36 -0.84 C-0.36 21.86, 0.23 113.49, 0.35 136.38 M1.65 1.34 C1.49 24.2, -0.11 115.07, -0.41 137.81" stroke="#f08c00" stroke-width="2" fill="none"></path></g><g transform="translate(67.14297485351562 279.14290618896484) rotate(0 0 68.28569030761713)"><path d="M-8.59 114.19 C-7.26 122.54, -3.52 130.32, -0.41 137.81 M-8.59 114.19 C-6.49 120.15, -3.41 128.68, -0.41 137.81" stroke="#f08c00" stroke-width="2" fill="none"></path></g><g transform="translate(67.14297485351562 279.14290618896484) rotate(0 0 68.28569030761713)"><path d="M8.5 114.45 C4.23 122.66, 2.38 130.36, -0.41 137.81 M8.5 114.45 C5.6 120.31, 3.68 128.76, -0.41 137.81" stroke="#f08c00" stroke-width="2" fill="none"></path></g></g><mask></mask><g stroke-linecap="round"><g transform="translate(121.19314428197549 413.2076492864969) rotate(0 -0.8762557357506466 -65.03237154876604)"><path d="M0 0.09 C-0.15 -21.33, -1.47 -107.66, -1.83 -129.36 M-1.45 -0.91 C-1.69 -22.6, -2.54 -109.8, -2.83 -131.12" stroke="#2f9e44" stroke-width="2" fill="none"></path></g><g transform="translate(121.19314428197549 413.2076492864969) rotate(0 -0.8762557357506466 -65.03237154876604)"><path d="M5.99 -107.73 C4.33 -113.1, 3.37 -118.91, -2.83 -131.12 M5.99 -107.73 C3.01 -115.2, 0.6 -121.14, -2.83 -131.12" stroke="#2f9e44" stroke-width="2" fill="none"></path></g><g transform="translate(121.19314428197549 413.2076492864969) rotate(0 -0.8762557357506466 -65.03237154876604)"><path d="M-11.11 -107.53 C-8.94 -112.95, -6.07 -118.81, -2.83 -131.12 M-11.11 -107.53 C-9.05 -114.96, -6.41 -120.96, -2.83 -131.12" stroke="#2f9e44" stroke-width="2" fill="none"></path></g></g><mask></mask><g stroke-linecap="round"><g transform="translate(354.57159423828125 418.57149505615234) rotate(0 0 -68.857177734375)"><path d="M-0.89 -0.62 C-0.88 -23.8, -0.9 -115.37, -0.67 -138.2 M0.84 1.67 C1.31 -21.43, 1.84 -113.93, 1.69 -136.92" stroke="#2f9e44" stroke-width="2" fill="none"></path></g><g transform="translate(354.57159423828125 418.57149505615234) rotate(0 0 -68.857177734375)"><path d="M10.22 -113.42 C6.97 -120.23, 5.14 -123.97, 1.69 -136.92 M10.22 -113.42 C7.74 -121.56, 4.98 -127.51, 1.69 -136.92" stroke="#2f9e44" stroke-width="2" fill="none"></path></g><g transform="translate(354.57159423828125 418.57149505615234) rotate(0 0 -68.857177734375)"><path d="M-6.88 -113.44 C-6.04 -120.11, -3.78 -123.85, 1.69 -136.92 M-6.88 -113.44 C-4.1 -121.45, -1.62 -127.4, 1.69 -136.92" stroke="#2f9e44" stroke-width="2" fill="none"></path></g></g><mask></mask><g stroke-linecap="round"><g transform="translate(576.8572998046875 409.99999237060547) rotate(0 -5.684341886080802e-14 -63.142852783203125)"><path d="M0.49 0.4 C0.45 -20.95, 0.41 -106.29, 0.36 -127.24 M-0.72 -0.43 C-0.93 -21.75, -0.45 -105.09, -0.4 -126.2" stroke="#2f9e44" stroke-width="2" fill="none"></path></g><g transform="translate(576.8572998046875 409.99999237060547) rotate(0 -5.684341886080802e-14 -63.142852783203125)"><path d="M8.06 -102.68 C5.62 -110.21, 0.42 -118.62, -0.4 -126.2 M8.06 -102.68 C5.49 -111.36, 2.22 -120.83, -0.4 -126.2" stroke="#2f9e44" stroke-width="2" fill="none"></path></g><g transform="translate(576.8572998046875 409.99999237060547) rotate(0 -5.684341886080802e-14 -63.142852783203125)"><path d="M-9.04 -102.75 C-5.55 -110.32, -4.81 -118.71, -0.4 -126.2 M-9.04 -102.75 C-5.07 -111.47, -1.8 -120.92, -0.4 -126.2" stroke="#2f9e44" stroke-width="2" fill="none"></path></g></g><mask></mask><g stroke-linecap="round"><g transform="translate(294.57159423828125 283.7142868041992) rotate(0 0 65.71430969238281)"><path d="M0.32 -0.6 C0.48 21.51, 0.88 109.72, 0.77 131.79 M-0.96 1.69 C-0.88 23.51, 0.28 108.52, 0.23 129.86" stroke="#f08c00" stroke-width="2" fill="none"></path></g><g transform="translate(294.57159423828125 283.7142868041992) rotate(0 0 65.71430969238281)"><path d="M-8.48 106.43 C-7.17 114.39, -3.06 119.29, 0.23 129.86 M-8.48 106.43 C-5.22 114.7, -2.84 122.41, 0.23 129.86" stroke="#f08c00" stroke-width="2" fill="none"></path></g><g transform="translate(294.57159423828125 283.7142868041992) rotate(0 0 65.71430969238281)"><path d="M8.62 106.31 C5.05 114.36, 4.26 119.28, 0.23 129.86 M8.62 106.31 C6.15 114.75, 2.8 122.51, 0.23 129.86" stroke="#f08c00" stroke-width="2" fill="none"></path></g></g><mask></mask><g stroke-linecap="round"><g transform="translate(526.0001831054688 281.99999237060547) rotate(0 0 64.57145690917969)"><path d="M-0.15 0.68 C-0.01 22.27, 0.84 107.92, 0.68 129.31 M-1.69 -0.01 C-1.64 21.82, -0.39 109.22, 0.09 130.94" stroke="#f08c00" stroke-width="2" fill="none"></path></g><g transform="translate(526.0001831054688 281.99999237060547) rotate(0 0 64.57145690917969)"><path d="M-8.87 107.6 C-5.21 115.44, -3.49 119.09, 0.09 130.94 M-8.87 107.6 C-6.25 115.13, -3.57 121.67, 0.09 130.94" stroke="#f08c00" stroke-width="2" fill="none"></path></g><g transform="translate(526.0001831054688 281.99999237060547) rotate(0 0 64.57145690917969)"><path d="M8.23 107.3 C6.98 115.21, 3.79 118.95, 0.09 130.94 M8.23 107.3 C5.87 114.99, 3.56 121.63, 0.09 130.94" stroke="#f08c00" stroke-width="2" fill="none"></path></g></g><mask></mask><g stroke-linecap="round" transform="translate(258.57159423828125 10) rotate(0 82 50.85713577270508)"><path d="M100.28 0.92 C111.68 1.8, 124.73 6.2, 133.97 10.89 C143.22 15.58, 150.61 22.48, 155.74 29.03 C160.87 35.59, 164.93 42.79, 164.74 50.25 C164.56 57.7, 160.08 67.1, 154.64 73.76 C149.2 80.42, 141.25 85.88, 132.12 90.21 C123 94.54, 111.24 97.96, 99.89 99.74 C88.54 101.52, 75.67 102.48, 64.02 100.9 C52.37 99.31, 39.41 94.96, 29.97 90.24 C20.54 85.51, 12.37 79.3, 7.42 72.52 C2.47 65.74, 0.16 57.03, 0.25 49.56 C0.34 42.1, 2.9 34.27, 7.97 27.74 C13.04 21.2, 21.39 14.8, 30.67 10.33 C39.95 5.86, 49.51 1.84, 63.64 0.9 C77.78 -0.03, 104.9 3.15, 115.48 4.7 C126.07 6.25, 127.79 9.6, 127.16 10.19 M44.77 6.73 C54.52 2.7, 68.55 0.6, 80.25 -0.04 C91.95 -0.68, 104.42 -0.13, 114.97 2.89 C125.53 5.9, 135.71 12.36, 143.57 18.05 C151.43 23.73, 158.78 29.87, 162.14 36.99 C165.51 44.1, 166.29 53.57, 163.75 60.74 C161.21 67.91, 154.38 74.13, 146.91 80.01 C139.43 85.89, 129.21 92.57, 118.92 96.02 C108.64 99.46, 96.94 100.49, 85.19 100.69 C73.44 100.88, 59.11 100.2, 48.41 97.17 C37.72 94.14, 28.58 87.97, 21.04 82.5 C13.5 77.03, 6.46 71.44, 3.17 64.33 C-0.11 57.22, -0.82 47.08, 1.3 39.83 C3.42 32.57, 8.91 26.4, 15.9 20.8 C22.9 15.2, 38.45 8.37, 43.28 6.25 C48.1 4.14, 44.32 7.69, 44.87 8.12" stroke="#1971c2" stroke-width="2" fill="none"></path></g><g transform="translate(304.9716110229492 48.39571019610037) rotate(0 35.59998321533203 12.5)"><text x="35.59998321533203" y="0" font-family="Virgil, Segoe UI Emoji" font-size="20px" fill="#1971c2" text-anchor="middle" style="white-space: pre;" direction="ltr" dominant-baseline="text-before-edge">Web UI</text></g><g stroke-linecap="round"><g transform="translate(308.8572998046875 105.42859649658203) rotate(0 0 35.14288330078122)"><path d="M0.06 0.07 C-0.24 11.94, -0.81 59.48, -0.77 71.29 M-1.36 -0.93 C-1.37 10.6, 1.37 58.06, 1.54 69.69" stroke="#1971c2" stroke-width="2" fill="none"></path></g><g transform="translate(308.8572998046875 105.42859649658203) rotate(0 0 35.14288330078122)"><path d="M-7.91 46.55 C-4.12 54.2, 1.09 64.92, 1.54 69.69 M-7.91 46.55 C-4.27 54.93, -0.6 62.62, 1.54 69.69" stroke="#1971c2" stroke-width="2" fill="none"></path></g><g transform="translate(308.8572998046875 105.42859649658203) rotate(0 0 35.14288330078122)"><path d="M9.18 45.89 C6.37 53.81, 4.98 64.78, 1.54 69.69 M9.18 45.89 C6.83 54.6, 4.5 62.53, 1.54 69.69" stroke="#1971c2" stroke-width="2" fill="none"></path></g></g><mask></mask><g stroke-linecap="round"><g transform="translate(371.1429443359375 173.99999237060547) rotate(0 0 -34.857139587402344)"><path d="M-0.62 0.72 C-0.41 -10.95, -0.19 -58.34, 0.08 -69.97 M1.26 0.06 C1.42 -11.44, -0.75 -56.72, -0.83 -68.57" stroke="#f08c00" stroke-width="2" fill="none"></path></g><g transform="translate(371.1429443359375 173.99999237060547) rotate(0 0 -34.857139587402344)"><path d="M8.4 -45.34 C7.75 -49.9, 4.27 -53, -0.83 -68.57 M8.4 -45.34 C4.57 -53.68, 2.8 -62.5, -0.83 -68.57" stroke="#f08c00" stroke-width="2" fill="none"></path></g><g transform="translate(371.1429443359375 173.99999237060547) rotate(0 0 -34.857139587402344)"><path d="M-8.69 -44.84 C-5.93 -49.42, -5.99 -52.62, -0.83 -68.57 M-8.69 -44.84 C-6.47 -53.43, -2.19 -62.43, -0.83 -68.57" stroke="#f08c00" stroke-width="2" fill="none"></path></g></g><mask></mask></svg>
